<svg id="volcano" version="1.1" xmlns="http://www.w3.org/2000/svg" xmlns:xlink="http://www.w3.org/1999/xlink" x="0px"
     y="0px"
     viewBox="0 0 841.89 595.28" style="enable-background:new 0 0 841.89 595.28;" xml:space="preserve">
<style type="text/css">
	.st0{fill:#FBECAB;stroke:#FFFFFF;stroke-miterlimit:10;stroke-width:6;}
	.st1{fill:#F5B0BE;stroke:#FFFFFF;stroke-miterlimit:10;stroke-width:4;}
	.st2{fill:#C6E1E0;stroke:#FFFFFF;stroke-miterlimit:10;stroke-width:4;}
	.st3{fill:#AAD19E;stroke:#FFFFFF;stroke-miterlimit:10;stroke-width:4;}
	.st4{fill:none;stroke:#FFFFFF;stroke-width:4;stroke-miterlimit:10;}
</style>
    <path class="st0" d="M341.05,89.83c-7.03,23.83-10.55,35.74-15.91,44.37c-15.14,24.39-33.18,17.42-63.63,41.86
		c-8.35,6.7-41.19,33.07-46.05,71.16c-3.79,29.79,13.48,35.76,7.53,59.44c-7.78,31-39.26,28.21-61.95,66.14
		c-18.58,31.04-16.03,63.88-15.07,76.19c1.31,16.89,4.94,63.59,37.67,84.56c27.54,17.64,63.01,8.95,102.98-0.84
		c42.86-10.5,48.25-22.24,74.51-20.09c32.57,2.67,41.01,22.11,71.16,30.98c32.66,9.6,81.4,5.62,108-21.77
		c12.43-12.8,10.25-20.9,20.93-25.12c26.15-10.33,49.65,34.09,83.72,28.47c29.37-4.85,44.3-43.23,46.05-47.72
		c12.33-31.68,1.68-60.91-7.53-86.23c-6.75-18.54-20.47-56.22-56.09-79.53c-32.06-20.98-57.85-14.61-63.63-31.81
		c-6.16-18.33,21.83-29.36,23.44-60.28c1.58-30.21-23.07-59.56-46.05-73.67c-28.61-17.57-44.45-5.26-63.63-23.44
		c-20.93-19.84-7.97-40.09-27.63-61.95c-24.86-27.65-78.08-31.42-96.28-11.72C347.94,54.95,350.36,58.3,341.05,89.83z"/>
    <path class="st1" d="M370.44,270.2c-9.05,6.32-7.19,9.65-20.09,24.56c-7.84,9.05-14.96,15.25-41.3,34.6
		c-41.85,30.75-45.4,30.91-60.28,44.65c-18.08,16.69-27.2,25.34-31.26,40.19c-6.25,22.9,4.08,43.94,8.93,52.46
		c117.95-2.23,235.91-4.47,353.86-6.7c5.49-2.73,8.93-6.04,11.16-8.93c15.05-19.51,4.05-57.53-16.74-75.91
		c-0.48-0.42-6.27-4.37-17.86-12.28c-25.56-17.43-25.9-17.26-31.26-21.21c-10.88-8.02-19.53-16.88-36.84-34.6
		c-15.42-15.79-20.04-22.01-32.37-30.14c-5.33-3.51-11.88-7.83-21.21-11.16C431.88,264.55,396.08,252.31,370.44,270.2z"/>
    <path class="st2" d="M406.16,214.38c1.15-26.14-4.85-35.01,1.12-41.3c7.56-7.98,21.02,2.24,31.26-6.7
		c7.72-6.74,8.42-19.84,5.58-29.02c-0.58-1.87-5-15.46-16.74-18.98c-15.25-4.56-30.57,11.54-31.26,12.28
		c-28.98,31.27,0.67,107.92,6.7,107.16C405.14,237.53,405.68,225.42,406.16,214.38z"/>
    <path class="st3" d="M435.18,233.36c-2.48-1.33,2.21-21.69,16.74-37.95c8.66-9.7,26.94-24.8,36.84-18.98
		c6.31,3.72,8.88,15.76,4.47,22.33c-5.19,7.71-16.18,2.2-31.26,8.93C443.24,216.05,437.6,234.65,435.18,233.36z"/>
    <path class="st3" d="M386.07,240.06c3.11-2.43-2.11-18.31-13.4-29.02c-10.31-9.79-25.74-15.33-40.19-12.28
		c-7.67,1.62-19,6.49-18.98,12.28c0.02,6.83,15.81,11.65,17.86,12.28c11.45,3.5,15.07,0.17,25.67,2.23
		C375.24,229.08,383,242.45,386.07,240.06z"/>
    <path class="st4" d="M235.19,388.52c4.44-0.41,10.98-1.46,18.01-4.47c6.44-2.75,10.27-5.86,19.3-13.4
		c20.7-17.29,20.15-17.32,23.16-18.98c3.49-1.91,22.6-12.41,33.45-5.58c5.5,3.46,7.94,10.78,6.43,16.74
		c-2.37,9.35-12.93,9.38-24.45,21.21c-9.81,10.08-17.28,25.62-11.58,31.26c3.23,3.19,10.52,3.06,15.44,1.12
		c8.07-3.18,6.86-10.09,15.44-22.33c9.03-12.89,14.24-10.73,20.59-22.33c5.41-9.89,2.73-13.48,9.01-20.09
		c4.9-5.16,14.42-11.28,21.87-8.93c2.47,0.78,6.56,3.07,10.29,15.63c4,13.49,2.68,22.3,2.57,35.72c-0.16,19.79-0.3,37.63,7.72,40.19
		c4.88,1.55,12.43-2.65,15.44-7.81c4.45-7.63-3.66-12.9-5.15-29.02c-0.89-9.64,1.94-8.53,2.57-25.67
		c0.58-15.63-1.73-17.9,1.29-24.56c0.93-2.05,6.68-14.74,20.59-16.74c7.55-1.09,16.9,1.06,21.87,6.7c5.97,6.78,0.06,12.3,3.86,26.79
		c0.5,1.9,3.38,12.35,12.87,22.33c4.88,5.13,11.09,11.67,20.59,12.28c7.12,0.46,15.18-2.48,15.44-5.58
		c0.3-3.61-10.31-3.67-18.01-12.28c-2.45-2.74-3.26-4.84-7.72-17.86c-4.42-12.91-5.74-14.92-6.43-18.98
		c-1.26-7.33-2.45-14.25,1.29-16.74c3.72-2.48,10.07,3.02,25.73,8.93c7.6,2.87,14.03,4.61,18.01,5.58"/>
</svg>
